<svg width="48" height="48" xmlns="http://www.w3.org/2000/svg"><path d="M25.63835 48H2.64923C1.18567 48 0 46.8136 0 45.3506V2.64921C0 1.18585 1.18586 0 2.64923 0h42.70172C46.81395 0 48 1.18585 48 2.64921v42.7014C48 46.81377 46.81377 48 45.35095 48H33.1193V29.41175h6.23922l.93424-7.24416H33.1193v-4.62495c0-2.09735.58241-3.52663 3.58999-3.52663l3.83602-.00168V7.5351c-.66342-.08828-2.94053-.28552-5.58976-.28552-5.53072 0-9.3172 3.37596-9.3172 9.57564v5.34238h-6.25523v7.24416h6.25523V48z" fill="#000" fill-rule="evenodd"/></svg>