<svg viewBox="0 0 512 512" xmlns="http://www.w3.org/2000/svg" fill="currentColor"><path d="M11 508l20-60 19-57c4-10 3-17-2-26-26-49-34-101-25-155 8-46 27-86 59-121C134 32 199 5 275 8c56 3 106 23 148 60 40 35 65 78 77 129 10 41 9 82-3 122-15 52-44 94-86 126a239 239 0 01-261 22c-3-2-6-2-9-1L29 502l-18 6zm63-63l4-1 70-22c2-1 5 0 7 1l30 15c43 18 87 21 132 9 53-15 94-47 122-95 24-41 32-85 24-131-9-60-39-106-90-139-43-29-91-39-142-31-45 7-82 28-113 60-27 27-45 60-53 97-11 54-3 105 27 151 6 9 6 17 2 26l-20 60z"/><path d="M389 322c0 19-9 34-27 43-19 9-37 11-56 4-17-7-34-13-50-21-22-11-40-27-56-45-18-19-33-41-46-65-8-16-14-33-12-53s12-36 28-49l12-4 16 1c4 1 6 4 8 7l11 29 7 20c4 8 2 14-3 20l-13 15c-4 3-5 7-2 12 11 20 25 38 44 53 12 10 26 17 40 24 4 2 8 2 11-2l21-24c4-5 6-6 12-3l51 27c4 2 5 6 4 11z"/></svg>